<?xml version="1.0" encoding="UTF-8" standalone="no"?><svg xmlns="http://www.w3.org/2000/svg" xmlns:xlink="http://www.w3.org/1999/xlink" contentScriptType="application/ecmascript" contentStyleType="text/css" height="283px" preserveAspectRatio="none" style="width:270px;height:283px;" version="1.1" viewBox="0 0 270 283" width="270px" zoomAndPan="magnify"><defs><filter height="300%" id="fm8cg9hnvijcw" width="300%" x="-1" y="-1"><feGaussianBlur result="blurOut" stdDeviation="2.0"/><feColorMatrix in="blurOut" result="blurOut2" type="matrix" values="0 0 0 0 0 0 0 0 0 0 0 0 0 0 0 0 0 0 .4 0"/><feOffset dx="4.0" dy="4.0" in="blurOut2" result="blurOut3"/><feBlend in="SourceGraphic" in2="blurOut3" mode="normal"/></filter></defs><g><!--MD5=[1c729d752f206f4ffd352936364f22f4]
class BlockProcessor--><rect fill="#FEFECE" filter="url(#fm8cg9hnvijcw)" height="48" id="BlockProcessor" style="stroke: #A80036; stroke-width: 1.5;" width="128" x="63" y="8"/><ellipse cx="78" cy="24" fill="#ADD1B2" rx="11" ry="11" style="stroke: #A80036; stroke-width: 1.0;"/><path d="M80.9688,29.6406 Q80.3906,29.9375 79.75,30.0781 Q79.1094,30.2344 78.4063,30.2344 Q75.9063,30.2344 74.5781,28.5938 Q73.2656,26.9375 73.2656,23.8125 Q73.2656,20.6875 74.5781,19.0313 Q75.9063,17.375 78.4063,17.375 Q79.1094,17.375 79.75,17.5313 Q80.4063,17.6875 80.9688,17.9844 L80.9688,20.7031 Q80.3438,20.125 79.75,19.8594 Q79.1563,19.5781 78.5313,19.5781 Q77.1875,19.5781 76.5,20.6563 Q75.8125,21.7188 75.8125,23.8125 Q75.8125,25.9063 76.5,26.9844 Q77.1875,28.0469 78.5313,28.0469 Q79.1563,28.0469 79.75,27.7813 Q80.3438,27.5 80.9688,26.9219 L80.9688,29.6406 Z "/><text fill="#000000" font-family="sans-serif" font-size="12" lengthAdjust="spacingAndGlyphs" textLength="96" x="92" y="28.1543">BlockProcessor</text><line style="stroke: #A80036; stroke-width: 1.5;" x1="64" x2="190" y1="40" y2="40"/><line style="stroke: #A80036; stroke-width: 1.5;" x1="64" x2="190" y1="48" y2="48"/><!--MD5=[8df6c8ff76ba76847f391595fb90fdea]
class DiagramBlock--><rect fill="#FEFECE" filter="url(#fm8cg9hnvijcw)" height="48" id="DiagramBlock" style="stroke: #A80036; stroke-width: 1.5;" width="117" x="68.5" y="116"/><ellipse cx="83.5" cy="132" fill="#ADD1B2" rx="11" ry="11" style="stroke: #A80036; stroke-width: 1.0;"/><path d="M86.4688,137.6406 Q85.8906,137.9375 85.25,138.0781 Q84.6094,138.2344 83.9063,138.2344 Q81.4063,138.2344 80.0781,136.5938 Q78.7656,134.9375 78.7656,131.8125 Q78.7656,128.6875 80.0781,127.0313 Q81.4063,125.375 83.9063,125.375 Q84.6094,125.375 85.25,125.5313 Q85.9063,125.6875 86.4688,125.9844 L86.4688,128.7031 Q85.8438,128.125 85.25,127.8594 Q84.6563,127.5781 84.0313,127.5781 Q82.6875,127.5781 82,128.6563 Q81.3125,129.7188 81.3125,131.8125 Q81.3125,133.9063 82,134.9844 Q82.6875,136.0469 84.0313,136.0469 Q84.6563,136.0469 85.25,135.7813 Q85.8438,135.5 86.4688,134.9219 L86.4688,137.6406 Z "/><text fill="#000000" font-family="sans-serif" font-size="12" lengthAdjust="spacingAndGlyphs" textLength="85" x="97.5" y="136.1543">DiagramBlock</text><line style="stroke: #A80036; stroke-width: 1.5;" x1="69.5" x2="184.5" y1="148" y2="148"/><line style="stroke: #A80036; stroke-width: 1.5;" x1="69.5" x2="184.5" y1="156" y2="156"/><!--MD5=[a47f608df33cf1b2c252e40fe50bb216]
class DitaaBlock--><rect fill="#FEFECE" filter="url(#fm8cg9hnvijcw)" height="48" id="DitaaBlock" style="stroke: #A80036; stroke-width: 1.5;" width="98" x="6" y="224"/><ellipse cx="21" cy="240" fill="#ADD1B2" rx="11" ry="11" style="stroke: #A80036; stroke-width: 1.0;"/><path d="M23.9688,245.6406 Q23.3906,245.9375 22.75,246.0781 Q22.1094,246.2344 21.4063,246.2344 Q18.9063,246.2344 17.5781,244.5938 Q16.2656,242.9375 16.2656,239.8125 Q16.2656,236.6875 17.5781,235.0313 Q18.9063,233.375 21.4063,233.375 Q22.1094,233.375 22.75,233.5313 Q23.4063,233.6875 23.9688,233.9844 L23.9688,236.7031 Q23.3438,236.125 22.75,235.8594 Q22.1563,235.5781 21.5313,235.5781 Q20.1875,235.5781 19.5,236.6563 Q18.8125,237.7188 18.8125,239.8125 Q18.8125,241.9063 19.5,242.9844 Q20.1875,244.0469 21.5313,244.0469 Q22.1563,244.0469 22.75,243.7813 Q23.3438,243.5 23.9688,242.9219 L23.9688,245.6406 Z "/><text fill="#000000" font-family="sans-serif" font-size="12" lengthAdjust="spacingAndGlyphs" textLength="66" x="35" y="244.1543">DitaaBlock</text><line style="stroke: #A80036; stroke-width: 1.5;" x1="7" x2="103" y1="256" y2="256"/><line style="stroke: #A80036; stroke-width: 1.5;" x1="7" x2="103" y1="264" y2="264"/><!--MD5=[3e4b883855ef57bb465494dd7c4ac7dc]
class PlantUmlBlock--><rect fill="#FEFECE" filter="url(#fm8cg9hnvijcw)" height="48" id="PlantUmlBlock" style="stroke: #A80036; stroke-width: 1.5;" width="120" x="139" y="224"/><ellipse cx="154" cy="240" fill="#ADD1B2" rx="11" ry="11" style="stroke: #A80036; stroke-width: 1.0;"/><path d="M156.9688,245.6406 Q156.3906,245.9375 155.75,246.0781 Q155.1094,246.2344 154.4063,246.2344 Q151.9063,246.2344 150.5781,244.5938 Q149.2656,242.9375 149.2656,239.8125 Q149.2656,236.6875 150.5781,235.0313 Q151.9063,233.375 154.4063,233.375 Q155.1094,233.375 155.75,233.5313 Q156.4063,233.6875 156.9688,233.9844 L156.9688,236.7031 Q156.3438,236.125 155.75,235.8594 Q155.1563,235.5781 154.5313,235.5781 Q153.1875,235.5781 152.5,236.6563 Q151.8125,237.7188 151.8125,239.8125 Q151.8125,241.9063 152.5,242.9844 Q153.1875,244.0469 154.5313,244.0469 Q155.1563,244.0469 155.75,243.7813 Q156.3438,243.5 156.9688,242.9219 L156.9688,245.6406 Z "/><text fill="#000000" font-family="sans-serif" font-size="12" lengthAdjust="spacingAndGlyphs" textLength="88" x="168" y="244.1543">PlantUmlBlock</text><line style="stroke: #A80036; stroke-width: 1.5;" x1="140" x2="258" y1="256" y2="256"/><line style="stroke: #A80036; stroke-width: 1.5;" x1="140" x2="258" y1="264" y2="264"/><!--MD5=[b0552178e3adc9f8c93113ea2f4bf563]
reverse link BlockProcessor to DiagramBlock--><path d="M127,76.02 C127,89.58 127,104.04 127,115.68 " fill="none" id="BlockProcessor&lt;-DiagramBlock" style="stroke: #A80036; stroke-width: 1.0;"/><polygon fill="none" points="120,76,127,56,134,76,120,76" style="stroke: #A80036; stroke-width: 1.0;"/><!--MD5=[09f08fe5dcfd9ff1a23fb7b5f4ae8f7f]
reverse link DiagramBlock to DitaaBlock--><path d="M100.06,180.66 C90.22,195.15 79.41,211.07 70.84,223.68 " fill="none" id="DiagramBlock&lt;-DitaaBlock" style="stroke: #A80036; stroke-width: 1.0;"/><polygon fill="none" points="94.35,176.61,111.38,164,105.93,184.48,94.35,176.61" style="stroke: #A80036; stroke-width: 1.0;"/><!--MD5=[374d751c35dd1cdf893f3fa873191a24]
reverse link DiagramBlock to PlantUmlBlock--><path d="M153.94,180.66 C163.78,195.15 174.59,211.07 183.16,223.68 " fill="none" id="DiagramBlock&lt;-PlantUmlBlock" style="stroke: #A80036; stroke-width: 1.0;"/><polygon fill="none" points="148.07,184.48,142.62,164,159.65,176.61,148.07,184.48" style="stroke: #A80036; stroke-width: 1.0;"/><!--MD5=[537a6ca155f3118ede85693347928ca1]
@startuml
class BlockProcessor
class DiagramBlock
class DitaaBlock
class PlantUmlBlock

BlockProcessor <|- - DiagramBlock
DiagramBlock <|- - DitaaBlock
DiagramBlock <|- - PlantUmlBlock
@enduml

PlantUML version 1.2020.06(Sun Apr 05 12:38:32 UTC 2020)
(APACHE source distribution)
Java Runtime: OpenJDK Runtime Environment
JVM: OpenJDK 64-Bit Server VM
Java Version: 11.0.8+10-post-Ubuntu-0ubuntu120.04
Operating System: Linux
Default Encoding: ANSI_X3.4-1968
Language: en
Country: US
--></g></svg>